<?xml version="1.0" standalone="no"?>
<!DOCTYPE svg PUBLIC "-//W3C//DTD SVG 20010904//EN"
 "http://www.w3.org/TR/2001/REC-SVG-20010904/DTD/svg10.dtd">
<svg version="1.0" xmlns="http://www.w3.org/2000/svg"
 width="736.000000pt" height="654.000000pt" viewBox="0 0 736.000000 654.000000"
 preserveAspectRatio="xMidYMid meet">

<g transform="translate(0.000000,654.000000) scale(0.100000,-0.100000)"
fill="#000000" stroke="none">
<path d="M3465 6174 c-272 -40 -531 -132 -740 -263 -140 -88 -214 -148 -330
-265 -430 -434 -607 -1030 -489 -1641 52 -263 193 -559 374 -780 112 -136 322
-321 450 -394 215 -124 382 -190 581 -230 277 -55 491 -54 758 5 468 104 865
379 1128 780 504 769 342 1811 -370 2387 -177 143 -357 243 -574 316 -204 69
-288 83 -538 86 -121 2 -233 1 -250 -1z m331 -1358 c223 -59 375 -290 337
-511 -43 -250 -271 -419 -519 -384 -248 35 -427 277 -386 522 30 178 161 326
331 373 62 17 174 17 237 0z m1560 -261 c12 -65 -2 -415 -21 -500 -48 -227
-140 -444 -266 -632 -143 -212 -396 -436 -620 -549 -488 -245 -1048 -245
-1540 2 -202 101 -433 297 -581 494 -102 136 -259 443 -237 465 3 2 45 13 94
24 50 11 158 36 240 55 489 113 678 156 679 154 64 -123 204 -246 339 -298
326 -127 691 24 833 345 13 30 32 96 42 147 l19 92 204 48 c112 26 337 79 499
116 162 38 298 70 302 71 4 0 10 -15 14 -34z"/>
<path d="M3591 4613 c-64 -23 -133 -95 -151 -158 -31 -107 -6 -199 70 -268
101 -91 239 -91 340 0 108 97 113 261 10 364 -74 74 -172 96 -269 62z m177
-74 c154 -75 125 -303 -45 -348 -121 -33 -243 74 -231 200 13 132 153 207 276
148z"/>
</g>
</svg>
